<?xml version="1.0" encoding="UTF-8"?>
<svg xmlns="http://www.w3.org/2000/svg" xmlns:xlink="http://www.w3.org/1999/xlink" width="320px" height="320px" viewBox="0 0 320 320" version="1.1">
<g id="surface1">
<path style=" stroke:none;fill-rule:nonzero;fill:rgb(24.705882%,31.764706%,70.980392%);fill-opacity:1;" d="M 91.410156 115.734375 L 91.859375 183.835938 L 102.070312 183.835938 L 102.070312 115.734375 Z M 217.847656 115.734375 L 217.847656 183.863281 L 230.136719 183.863281 C 230.136719 183.863281 230.242188 159.277344 230.378906 159.304688 C 230.511719 159.304688 248.703125 184.796875 248.867188 184.707031 C 249.050781 184.660156 259.769531 180.804688 259.769531 180.695312 C 259.769531 180.617188 241.5 157.261719 241.5 157.234375 C 241.5 157.179688 256.820312 140.128906 256.683594 139.992188 C 256.261719 139.597656 247.960938 136.007812 247.722656 136.136719 C 247.613281 136.214844 230.136719 155.183594 230.136719 155.183594 L 230.136719 115.734375 Z M 14.203125 136.503906 C 9.789062 137.4375 5.636719 140.261719 3.9375 143.535156 C 2.371094 146.734375 2.390625 150.484375 3.992188 153.667969 C 5.078125 155.769531 8.246094 158.699219 13.164062 162.148438 C 18.492188 165.933594 20.503906 167.816406 21.015625 169.605469 C 21.789062 172.238281 20.617188 174.707031 18.0625 175.9375 C 16.789062 176.550781 16.222656 176.625 13.960938 176.519531 C 11.011719 176.386719 8.988281 175.636719 5.988281 173.484375 C 5.023438 172.824219 4.144531 172.339844 4.039062 172.449219 C 3.9375 172.558594 2.976562 173.996094 1.914062 175.640625 L 0 178.589844 L 0.714844 179.148438 C 1.144531 179.441406 2.417969 180.222656 3.585938 180.878906 C 11.679688 185.375 23.644531 184.660156 29.710938 179.3125 C 32.9375 176.550781 34.492188 172.304688 33.8125 168.113281 C 33.230469 164.144531 31.042969 161.546875 24.175781 156.566406 C 18.785156 152.660156 16.230469 150.507812 15.640625 149.363281 C 14.5 147.121094 15.296875 144.972656 17.710938 143.714844 C 18.9375 143.082031 19.441406 143.027344 21.867188 143.128906 C 24.230469 143.210938 24.953125 143.402344 26.921875 144.328125 L 29.207031 145.445312 L 30.988281 142.652344 C 31.976562 141.117188 32.6875 139.753906 32.613281 139.625 C 32.296875 139.144531 28.542969 137.574219 26.199219 136.964844 C 23.085938 136.136719 17.074219 135.898438 14.203125 136.511719 Z M 68.234375 142.523438 C 73.613281 145.046875 76.480469 152.945312 75.3125 161.941406 C 74.902344 165.132812 73.765625 168.988281 72.703125 170.773438 C 71.636719 172.613281 69.566406 174.609375 67.914062 175.378906 C 64.878906 176.808594 60.386719 176.253906 57.542969 174.097656 C 53.605469 171.097656 51.445312 163.726562 52.265625 156.0625 C 53.046875 149.042969 55.570312 144.597656 59.984375 142.546875 C 62.273438 141.484375 65.980469 141.484375 68.234375 142.523438 Z M 63.332031 134.699219 C 60.121094 135.421875 57.566406 136.859375 54.800781 139.488281 L 52.296875 141.882812 L 52.296875 136.164062 L 40.777344 136.164062 L 40.777344 204.265625 L 52.296875 204.265625 L 52.296875 176.496094 L 54.507812 178.644531 C 58.546875 182.609375 63.289062 184.210938 68.816406 183.433594 C 72.433594 182.929688 74.988281 182.003906 77.679688 180.191406 C 85.238281 175.136719 89.414062 165.054688 88.265625 154.515625 C 87.179688 144.519531 82.042969 137.601562 73.761719 134.972656 C 71.636719 134.277344 65.839844 134.140625 63.339844 134.699219 Z M 110.636719 136.164062 C 110.636719 136.164062 111.011719 172.160156 111.253906 173.199219 C 112.179688 177.164062 114.839844 180.933594 117.824219 182.5625 C 120.5625 184.046875 122.765625 184.503906 126.894531 184.503906 C 132.769531 184.476562 136.332031 183.066406 140.699219 179.050781 L 142.933594 177.023438 L 142.933594 183.835938 L 154.796875 183.835938 L 154.640625 136.164062 L 142.933594 136.164062 C 142.933594 136.164062 143.089844 165.773438 142.933594 166.808594 C 142.238281 170.960938 139.023438 174.371094 135.75 175.457031 C 133.808594 176.121094 130.402344 176.648438 128.355469 176.328125 C 126.253906 175.992188 122.710938 173.675781 122.503906 170.214844 L 122.503906 136.320312 Z M 209.277344 183.835938 C 209.277344 183.835938 208.902344 147.839844 208.667969 146.800781 C 207.742188 142.835938 205.074219 139.066406 202.097656 137.4375 C 199.359375 135.953125 197.148438 135.496094 193.019531 135.496094 C 187.144531 135.523438 183.582031 136.933594 179.214844 140.949219 L 176.984375 142.976562 L 176.984375 136.164062 L 165.121094 136.164062 L 165.277344 183.835938 L 176.984375 183.835938 C 176.984375 183.835938 176.828125 154.226562 176.984375 153.191406 C 177.679688 149.039062 180.894531 145.628906 184.171875 144.542969 C 186.113281 143.878906 188.664062 143.375 191.566406 143.671875 C 194.457031 143.984375 197.625 146.617188 197.417969 149.785156 L 197.417969 183.679688 Z M 209.277344 183.835938 "/>
<path style=" stroke:none;fill-rule:evenodd;fill:rgb(24.705882%,31.764706%,70.980392%);fill-opacity:1;" d="M 272.328125 132.757812 L 272.328125 142.976562 L 313.191406 156.597656 L 272.328125 174.316406 L 272.328125 183.835938 L 320 163.402344 L 320 149.785156 Z M 272.328125 132.757812 "/>
</g>
</svg>
